<svg enable-background="new 0 0 382 382" viewBox="0 0 382 382" xmlns="http://www.w3.org/2000/svg"><path d="m38 201.4c0-7.1 0-14.3 0-21.4.7-.5.4-1.2.5-1.8.5-4.8 1-9.5 1.9-14.3 5.5-30 18.4-56.4 39.8-78.1 37.9-38.7 84-53.9 137.5-45.2 36 5.9 65.9 23.5 89.7 51.2 19.9 23.1 31.7 49.9 35.5 80.2.4 3.3.3 6.6 1.2 9.8v19.6c-.7.4-.4 1-.5 1.6-.5 4.8-.9 9.6-1.9 14.3-9.6 48.7-36.2 84.9-79.8 108.6-20.9 11.4-43.6 16.8-67.4 17.5-2.5 0-5 0-7.5 0-11.6-.4-23-1.9-34.3-4.8-60.3-15.4-105.8-66.9-113.5-128.7-.4-2.8-.2-5.7-1.2-8.5zm153.1 119.7c4.1-.1 8.2-.1 12.2-.5 12.6-1.1 24.8-4.2 36.6-8.8 1.5-.6 2-1.5 1.7-3-.4-1.9-.7-3.9-1.1-5.8-5.9-30-14.5-59.3-25.3-88-1.1-2.9-1.1-3-4.1-1.9-31.4 11.3-58.9 28.5-81.2 53.5-6.9 7.7-13 15.9-18 24.9-1 1.8-.7 2.7.9 3.9 23.4 17 49.4 25.6 78.3 25.7zm-123.4-134.1c-1.7 0-3.4.1-5 0-1.8-.1-2.4.6-2.4 2.4-.1 6 .2 11.9 1 17.8 3.5 26.1 13.8 49.1 31 69.1 1.3 1.5 1.9 1.5 3-.2 11.2-17.4 24.7-32.9 40.3-46.5 19.9-17.4 42.3-30.6 67.7-38.4 1.8-.5 1.9-1.3 1.2-2.8-2.7-6.1-5.7-12.1-8.7-18.1-.7-1.4-1.6-1.7-3-1.3-2.8.9-5.6 1.6-8.4 2.4-23.1 6.1-46.5 10.2-70.2 12.8-15.5 1.5-31 2.4-46.5 2.8zm1.6-22.7c0-.2 0-.3 0-.5 4.7 0 9.5.2 14.2 0 14.9-.8 29.8-2.2 44.5-4.3 18-2.5 35.9-6 53.6-10.5 1.9-.5 2.1-1.1 1.2-2.8-14-24.6-29.4-48.3-45.9-71.4-.9-1.3-1.7-1.6-3.2-.8-12.4 6-23.6 13.9-33.5 23.5-12.5 12.1-22.2 26.1-29.2 42.1-3.1 7.2-5.6 14.7-7.4 22.3-.4 1.8 0 2.6 2 2.5 1.2-.2 2.4-.1 3.7-.1zm120.7-103.7c-1.1.1-3.2.2-5.3.3-7.4.2-14.6 1.3-21.8 2.8-2.1.4-2.2.7-.9 2.5 16.9 23.2 32.3 47.2 46.1 72.3.9 1.6 1.7 1.8 3.5 1.2 15-5.9 29.1-13.3 42.1-22.9 8.5-6.2 16.2-13.3 22.8-21.5.9-1.1 1.2-1.9-.1-3-24.8-20.9-53.2-31.3-86.4-31.7zm70.9 123.4c5.1 0 10.2-.2 15.3.1 6 .3 12 .9 18 1.5 8.5.8 16.9 2.1 25.3 3.7 1.8.4 2.3-.2 2.3-2-.2-4.8-.6-9.6-1.3-14.3-3.3-23.3-12.3-44.1-26.8-62.6-1.1-1.4-1.7-1.6-2.9-.1-6.1 7.7-13.4 14.3-21.1 20.5-14.6 11.7-30.7 20.9-47.9 28.1-2.6 1.1-2.5 1.1-1.3 3.6 3.2 6.8 6.5 13.5 9.2 20.5.7 1.9 1.8 2.5 3.8 2.3 9.1-1.3 18.2-1.4 27.4-1.3zm2.7 20c-6-.2-14 .5-22 1.6-2.9.4-2.9.5-2 3.2.6 1.7 1.2 3.4 1.8 5.1 9.3 26.9 16.9 54.3 22 82.3.5 2.5.7 2.6 2.8 1.1 4.1-2.9 8.1-6 11.8-9.3 21.8-19.7 35.7-44 41.3-72.9.7-3.5.7-3.5-2.8-4.4-16.6-4.5-33.5-6.7-52.9-6.7z" fill="#c0376c"/><path d="m187.1 343.7c0-.1 0-.2 0-.4h7.5v.4c-2.6 0-5.1 0-7.5 0z" fill="#f6e4eb"/><path d="m191.1 321.1c-28.9-.1-55-8.7-78.3-25.8-1.6-1.2-1.9-2.1-.9-3.9 5-9 11.2-17.2 18-24.9 22.4-25 49.9-42.2 81.2-53.5 3-1.1 3-1 4.1 1.9 10.8 28.7 19.3 57.9 25.3 88 .4 1.9.7 3.9 1.1 5.8.3 1.5-.2 2.4-1.7 3-11.8 4.7-23.9 7.7-36.6 8.8-4 .5-8.1.5-12.2.6z" fill="#ec669a"/><path d="m67.7 187c15.5-.4 31-1.3 46.4-2.9 23.7-2.5 47.1-6.6 70.2-12.8 2.8-.7 5.6-1.5 8.4-2.4 1.4-.4 2.3-.1 3 1.3 3 6 6 12 8.7 18.1.7 1.5.5 2.3-1.2 2.8-25.4 7.8-47.7 21-67.7 38.4-15.6 13.6-29.1 29.1-40.3 46.5-1.1 1.7-1.7 1.7-3 .2-17.1-20-27.5-43-31-69.1-.8-5.9-1.1-11.9-1-17.8 0-1.8.7-2.5 2.4-2.4 1.8.2 3.5.1 5.1.1z" fill="#ed669a"/><g fill="#ec669a"><path d="m69.3 164.3c-1.2 0-2.5-.1-3.7 0-1.9.1-2.4-.7-2-2.5 1.8-7.7 4.2-15.1 7.4-22.3 6.9-16 16.7-30 29.2-42.1 9.9-9.6 21.1-17.4 33.5-23.5 1.5-.7 2.3-.5 3.2.8 16.5 23.1 31.8 46.8 45.9 71.4 1 1.7.7 2.4-1.2 2.8-17.7 4.5-35.5 8-53.6 10.5-14.8 2.1-29.6 3.4-44.5 4.3-4.7.3-9.5 0-14.2 0z"/><path d="m190 60.6c33.2.4 61.6 10.8 86.2 31.6 1.3 1.1 1.1 1.9.1 3-6.7 8.2-14.4 15.3-22.8 21.5-13 9.6-27.1 17.1-42.1 22.9-1.7.7-2.6.5-3.5-1.2-13.8-25.1-29.3-49.1-46.1-72.3-1.3-1.8-1.2-2.1.9-2.5 7.2-1.5 14.5-2.6 21.8-2.8 2.3 0 4.4-.2 5.5-.2z"/><path d="m260.9 184c-9.2-.1-18.3-.1-27.4 1.2-2 .3-3.1-.4-3.8-2.3-2.8-7-6-13.7-9.2-20.5-1.2-2.5-1.2-2.6 1.3-3.6 17.2-7.2 33.3-16.4 47.9-28.1 7.7-6.1 14.9-12.8 21.1-20.5 1.2-1.5 1.9-1.3 2.9.1 14.5 18.5 23.5 39.3 26.8 62.6.7 4.8 1.1 9.5 1.3 14.3.1 1.8-.4 2.3-2.3 2-8.4-1.6-16.8-2.9-25.3-3.7-6-.6-12-1.2-18-1.5-5.1-.2-10.2 0-15.3 0z"/><path d="m263.6 204c19.4 0 36.4 2.2 53.1 6.6 3.4.9 3.4.9 2.8 4.4-5.6 28.9-19.5 53.1-41.3 72.9-3.7 3.4-7.7 6.5-11.8 9.3-2.1 1.5-2.4 1.4-2.8-1.1-5.2-28-12.8-55.4-22-82.3-.6-1.7-1.2-3.4-1.8-5.1-.9-2.7-.9-2.8 2-3.2 7.8-1 15.8-1.7 21.8-1.5z"/></g></svg>