<svg enable-background="new 0 0 382 382.1" viewBox="0 0 382 382.1" xmlns="http://www.w3.org/2000/svg" xmlns:xlink="http://www.w3.org/1999/xlink"><linearGradient id="a" gradientTransform="matrix(0 -42.2827 39.3387 0 -25913.3945 -19230.8281)" gradientUnits="userSpaceOnUse" x1="-463.2633" x2="-455.414" y1="659.3745" y2="667.8123"><stop offset="0" stop-color="#fd5"/><stop offset=".5" stop-color="#ff543e"/><stop offset="1" stop-color="#c837ab"/></linearGradient><path d="m24.9 26.5c-29.9 31.1-23.8 64.1-23.8 164.5 0 83.3-14.5 166.9 61.5 186.5 23.8 6.1 234.3 6.1 258 0 31.7-8.2 57.5-33.9 61-78.7.5-6.3.5-209.3 0-215.6-3.7-47.7-33.1-75.2-71.8-80.8-8.9-1.3-10.6-1.7-56.2-1.7-161.4 0-196.8-7.2-228.7 25.8z" fill="url(#a)"/><path d="m191.5 50.4c-57.6 0-112.4-5.1-133.3 48.5-8.6 22.2-7.4 50.9-7.4 92.1 0 36.2-1.2 70.1 7.4 92.1 20.9 53.7 76 48.5 133.2 48.5 55.2 0 112.1 5.7 133.2-48.5 8.6-22.4 7.4-50.7 7.4-92.1 0-54.9 3-90.4-23.6-117-26.9-27-63.4-23.6-116.9-23.6zm-12.6 25.4c120.2-.2 135.5-13.6 127.1 172.1-3 65.7-53 58.5-114.4 58.5-112 0-115.3-3.2-115.3-115.3 0-113.5 8.9-115.3 102.6-115.3zm87.7 23.3c-9.3 0-16.9 7.6-16.9 16.9s7.6 16.9 16.9 16.9 16.9-7.6 16.9-16.9-7.6-16.9-16.9-16.9zm-75.1 19.7c-39.9 0-72.2 32.3-72.2 72.2s32.3 72.2 72.2 72.2 72.2-32.3 72.2-72.2-32.3-72.2-72.2-72.2zm0 25.4c62 0 62.1 93.8 0 93.8-61.9 0-62-93.8 0-93.8z" fill="#fff"/></svg>