<svg enable-background="new 0 0 382 382" viewBox="0 0 382 382" xmlns="http://www.w3.org/2000/svg"><path d="m347.4 0h-312.8c-19.1 0-34.6 15.5-34.6 34.6v312.9c0 19 15.5 34.5 34.6 34.5h312.9c19.1 0 34.6-15.5 34.6-34.6v-312.8c-.1-19.1-15.6-34.6-34.7-34.6z" fill="#258ed5"/><path d="m72 281.7c22.7 14.4 49.7 22.8 78.6 22.8 81.2 0 147-65.8 147-147 0-2 0-4-.1-6 2.9-2.3 21.1-16.9 25.6-26.2 0 0-14.7 6.1-29.2 7.6h-.1.1c1.3-.9 19.9-13.5 22.4-28.6 0 0-10.4 5.6-25 10.4-2.4.8-4.9 1.6-7.6 2.3-9.4-10-22.8-16.3-37.7-16.3-28.5 0-51.6 23.1-51.6 51.6 0 4 .5 7.9 1.3 11.7-4-.2-64.6-3.6-105.9-53.5 0 0-24.7 33.7 14.7 68.3 0 0-12-.5-22.3-6.6 0 0-3.8 40.8 40.8 51.2 0 0-8.8 3.3-22.8 1 0 0 7.8 32.9 47.4 36 .1-.3-31.2 27.9-75.6 21.3z" fill="#fff"/></svg>